<svg xmlns="http://www.w3.org/2000/svg" viewBox="0 0 1080 1080"><defs><style>.cls-1{fill:#f1ebde;}</style></defs><g id="PROCESO_CREATIVO" data-name="PROCESO CREATIVO"><g id="ISOLOGO_Y_VARIANTES" data-name="ISOLOGO Y VARIANTES"><path class="cls-1" d="M221.58,568.61H152l-15,35.66H123.29l57.08-133.48h13l57.08,133.48H236.57Zm-4.82-11.44-30-71.7-30,71.7Z"/><path class="cls-1" d="M357.33,537.53H370v50.91c-11.77,11.25-28.54,17-45.85,17-38,0-65.82-28.79-65.82-67.88s27.83-67.89,66-67.89c18.91,0,35.32,6.49,46.38,19.26l-8.2,9c-10.53-11.06-23-15.63-37.64-15.63-30.86,0-53.52,23.45-53.52,55.3,0,31.65,22.66,55.3,53.34,55.3,11.95,0,23-2.86,32.64-10.3Z"/><path class="cls-1" d="M406.21,547.25V470.79h13.2v75.89c0,31.65,13.92,46.15,38.18,46.15,24.44,0,38.35-14.5,38.35-46.15V470.79h12.85v76.46c0,38.33-19.27,58.16-51.2,58.16S406.21,585.58,406.21,547.25Z"/><path class="cls-1" d="M536.61,588.06l5.17-10.87c8.92,9.34,24.8,16.21,41.21,16.21,23.37,0,33.54-10.49,33.54-23.65,0-36.61-76.89-14.11-76.89-63.5,0-19.64,14.28-36.61,46-36.61,14.09,0,28.72,4.39,38.71,11.82l-4.46,11.26a61.32,61.32,0,0,0-34.25-11.07c-22.84,0-33,10.87-33,24.22,0,36.61,76.88,14.49,76.88,63.12,0,19.64-14.62,36.42-46.56,36.42C564.26,605.41,545.89,598.36,536.61,588.06Z"/><path class="cls-1" d="M680.75,483H636.86v-12.2h101V483H694V604.27h-13.2Z"/><path class="cls-1" d="M956.71,470.79V604.27H945.83L865.55,496V604.27h-13.2V470.79h10.89L943.69,579.1V470.79Z"/><path class="cls-1" d="M802.4,439.92c4.58-1.73,8.86-4,8.86-8.86a8.86,8.86,0,0,0-8.86-8.86c-4.89,0-7.29,4.23-8.85,8.86C789.21,443.89,789.93,444.62,802.4,439.92Zm-.65,59.36c-6.14-5.86-3.53-11.24-2.84-12.9s9.56-20.62,10.73-22.83-1.14-6.45-9.12-6.78-6.89-8.21-6.89-8.21c0-.35-2.77-1.05-6.2-1.05s-6.21.7-6.21,1.05c0,0,1.09,7.89-6.89,8.21s-10.29,4.56-9.12,6.78,10,21.17,10.73,22.83,3.3,7-2.84,12.9-9.89,13.34-9.21,28.54c0,2.49,9.54,4.53,21.66,4.72v56.52h-2.09A5.44,5.44,0,0,0,778,594.5c0,4.07-5.11,6.89-8.45,6.89-2.51,0-1.24,1.6-.46,2.38a1.46,1.46,0,0,0,1,.43h5.17a2.3,2.3,0,0,0,2-1.12c1.41-2.41,4.88-7.88,7.69-8.59h.57v2.17a1.64,1.64,0,0,0,1.64,1.64h.47a1.64,1.64,0,0,0,1.64-1.64v-2.17h.57c2.81.71,6.28,6.18,7.69,8.59a2.3,2.3,0,0,0,2,1.12h5.18a1.44,1.44,0,0,0,1-.43c.78-.78,2-2.38-.46-2.38-3.33,0-8.45-2.82-8.45-6.89a5.43,5.43,0,0,0-5.44-5.44H789.3V532.54c12.12-.19,21.66-2.23,21.66-4.72C811.64,512.62,807.9,505.14,801.75,499.28Z"/><path class="cls-1" d="M253.6,652.29v9.45h12.74V664H253.6v10.21H251V650.08h16.89v2.21Z"/><path class="cls-1" d="M290.05,663v11.21h-2.39v-2.82c-1.12,1.86-3.31,3-6.37,3-4.18,0-6.75-2.13-6.75-5.26,0-2.79,1.83-5.12,7.14-5.12h5.88v-1.11c0-3.09-1.8-4.78-5.25-4.78a9.53,9.53,0,0,0-6.15,2.14L275,658.37a12,12,0,0,1,7.53-2.44C287.35,655.93,290.05,658.27,290.05,663Zm-2.49,5.78v-3h-5.81c-3.59,0-4.75,1.37-4.75,3.23,0,2.1,1.72,3.41,4.68,3.41A5.94,5.94,0,0,0,287.56,668.73Z"/><path class="cls-1" d="M319.68,665.11a8.88,8.88,0,0,1-9.22,9.22,8,8,0,0,1-7.14-3.75v3.58h-2.39V648.64h2.49v10.87a8.15,8.15,0,0,1,7-3.58A8.85,8.85,0,0,1,319.68,665.11Zm-2.5,0a6.9,6.9,0,1,0-6.89,7.06A6.71,6.71,0,0,0,317.18,665.11Z"/><path class="cls-1" d="M338.19,655.93v2.37c-.22,0-.43,0-.6,0-3.87,0-6.23,2.41-6.23,6.67v9.22h-2.5V656.07h2.39v3.54C332.41,657.2,334.77,655.93,338.19,655.93Z"/><path class="cls-1" d="M346.21,650.36a1.78,1.78,0,0,1,1.83-1.72,1.74,1.74,0,1,1,0,3.47A1.79,1.79,0,0,1,346.21,650.36Zm.56,5.71h2.5v18.09h-2.5Z"/><path class="cls-1" d="M358.45,665.11c0-5.4,4-9.18,9.54-9.18,3.13,0,5.77,1.21,7.24,3.58l-1.86,1.24a6.33,6.33,0,0,0-5.38-2.69,7.06,7.06,0,0,0,0,14.11,6.32,6.32,0,0,0,5.38-2.65l1.86,1.23a8.19,8.19,0,0,1-7.24,3.58C362.46,674.33,358.45,670.51,358.45,665.11Z"/><path class="cls-1" d="M398.17,663v11.21h-2.39v-2.82c-1.13,1.86-3.31,3-6.37,3-4.19,0-6.75-2.13-6.75-5.26,0-2.79,1.83-5.12,7.14-5.12h5.88v-1.11c0-3.09-1.8-4.78-5.25-4.78a9.58,9.58,0,0,0-6.16,2.14l-1.12-1.83a12,12,0,0,1,7.53-2.44C395.46,655.93,398.17,658.27,398.17,663Zm-2.49,5.78v-3h-5.81c-3.59,0-4.75,1.37-4.75,3.23,0,2.1,1.72,3.41,4.68,3.41A6,6,0,0,0,395.68,668.73Z"/><path class="cls-1" d="M426.07,663.67v10.49h-2.49V663.91c0-3.82-2.05-5.78-5.56-5.78-4,0-6.48,2.41-6.48,6.54v9.49H409V656.07h2.4v3.34c1.33-2.21,3.83-3.48,7-3.48C423,655.93,426.07,658.48,426.07,663.67Z"/><path class="cls-1" d="M446.69,673.06a6,6,0,0,1-3.9,1.27c-3.49,0-5.42-1.92-5.42-5.26V658.13h-3.31v-2.06h3.31v-4h2.49v4h5.63v2.06h-5.63v10.8c0,2.13,1.13,3.3,3.21,3.3a4.22,4.22,0,0,0,2.74-.92Z"/><path class="cls-1" d="M470.76,665.87H455.27c.29,3.78,3.24,6.3,7.29,6.3a7.37,7.37,0,0,0,5.66-2.38l1.41,1.58a9.19,9.19,0,0,1-7.14,3c-5.77,0-9.71-3.85-9.71-9.22a8.8,8.8,0,0,1,9-9.18c5.21,0,9,3.75,9,9.18C470.79,665.32,470.76,665.6,470.76,665.87Zm-15.49-1.82H468.4a6.59,6.59,0,0,0-13.13,0Z"/><path class="cls-1" d="M477.4,672.1l1.13-1.93a11.33,11.33,0,0,0,6.58,2c3.52,0,5-1.17,5-3,0-4.71-12-1-12-8.15,0-3,2.61-5.16,7.32-5.16a12.72,12.72,0,0,1,6.55,1.69l-1.09,2a9.68,9.68,0,0,0-5.46-1.55c-3.34,0-4.82,1.27-4.82,3,0,4.89,12,1.21,12,8.15,0,3.13-2.81,5.16-7.64,5.16A12.6,12.6,0,0,1,477.4,672.1Z"/><path class="cls-1" d="M530.11,656.07l-9.25,20.26c-1.55,3.54-3.52,4.67-6.16,4.67a6.45,6.45,0,0,1-4.51-1.65l1.17-1.82a4.68,4.68,0,0,0,3.37,1.38c1.66,0,2.78-.76,3.84-3l.81-1.75-8.27-18.06h2.6l7,15.37,7-15.37Z"/><path class="cls-1" d="M551.54,650.08h10c7.89,0,13.2,5,13.2,12s-5.31,12-13.2,12h-10ZM561.42,672c6.55,0,10.77-4.06,10.77-9.84s-4.22-9.83-10.77-9.83h-7.28V672Z"/><path class="cls-1" d="M583.59,650.36a1.78,1.78,0,0,1,1.83-1.72,1.74,1.74,0,1,1,0,3.47A1.79,1.79,0,0,1,583.59,650.36Zm.56,5.71h2.5v18.09h-2.5Z"/><path class="cls-1" d="M595.13,672.1l1.12-1.93a11.33,11.33,0,0,0,6.58,2c3.52,0,5-1.17,5-3,0-4.71-12-1-12-8.15,0-3,2.6-5.16,7.32-5.16a12.68,12.68,0,0,1,6.54,1.69l-1.09,2a9.64,9.64,0,0,0-5.45-1.55c-3.35,0-4.82,1.27-4.82,3,0,4.89,12,1.21,12,8.15,0,3.13-2.81,5.16-7.63,5.16A12.57,12.57,0,0,1,595.13,672.1Z"/><path class="cls-1" d="M628.73,673.06a6,6,0,0,1-3.91,1.27c-3.48,0-5.42-1.92-5.42-5.26V658.13h-3.3v-2.06h3.3v-4h2.5v4h5.63v2.06H621.9v10.8c0,2.13,1.13,3.3,3.21,3.3a4.22,4.22,0,0,0,2.74-.92Z"/><path class="cls-1" d="M646.67,655.93v2.37c-.21,0-.42,0-.6,0-3.87,0-6.22,2.41-6.22,6.67v9.22h-2.5V656.07h2.39v3.54C640.9,657.2,643.26,655.93,646.67,655.93Z"/><path class="cls-1" d="M654.69,650.36a1.78,1.78,0,0,1,1.83-1.72,1.74,1.74,0,1,1,0,3.47A1.79,1.79,0,0,1,654.69,650.36Zm.57,5.71h2.49v18.09h-2.49Z"/><path class="cls-1" d="M687.56,665.11a8.88,8.88,0,0,1-9.22,9.22,8.07,8.07,0,0,1-7.15-3.75v3.58H668.8V648.64h2.5v10.87a8.14,8.14,0,0,1,7-3.58A8.85,8.85,0,0,1,687.56,665.11Zm-2.5,0a6.9,6.9,0,1,0-6.9,7.06A6.72,6.72,0,0,0,685.06,665.11Z"/><path class="cls-1" d="M713.42,656.07v18.09H711v-3.3a7.4,7.4,0,0,1-6.65,3.47c-4.71,0-7.81-2.58-7.81-7.77V656.07h2.5v10.25c0,3.85,2,5.81,5.56,5.81,3.87,0,6.3-2.44,6.3-6.57v-9.49Z"/><path class="cls-1" d="M723.94,650.36a1.83,1.83,0,1,1,1.82,1.75A1.78,1.78,0,0,1,723.94,650.36Zm.56,5.71H727v18.09h-2.5Z"/><path class="cls-1" d="M754.93,648.64v25.52h-2.39v-3.58a8,8,0,0,1-7.14,3.75,9.2,9.2,0,1,1,0-18.4,8.12,8.12,0,0,1,7,3.58V648.64Zm-2.46,16.47a6.88,6.88,0,1,0-6.86,7.06A6.69,6.69,0,0,0,752.47,665.11Z"/><path class="cls-1" d="M764.11,665.11c0-5.36,4-9.18,9.43-9.18s9.4,3.82,9.4,9.18a9.42,9.42,0,0,1-18.83,0Zm16.3,0a6.88,6.88,0,1,0-6.87,7.06A6.67,6.67,0,0,0,780.41,665.11Z"/><path class="cls-1" d="M801.44,655.93v2.37c-.21,0-.42,0-.59,0-3.87,0-6.23,2.41-6.23,6.67v9.22h-2.5V656.07h2.39v3.54C795.67,657.2,798,655.93,801.44,655.93Z"/><path class="cls-1" d="M826,665.87H810.49c.28,3.78,3.23,6.3,7.28,6.3a7.4,7.4,0,0,0,5.67-2.38l1.4,1.58a9.19,9.19,0,0,1-7.14,3c-5.77,0-9.71-3.85-9.71-9.22a8.8,8.8,0,0,1,9-9.18c5.21,0,9,3.75,9,9.18C826,665.32,826,665.6,826,665.87Zm-15.48-1.82h13.12a6.58,6.58,0,0,0-13.12,0Z"/><path class="cls-1" d="M832.62,672.1l1.12-1.93a11.33,11.33,0,0,0,6.58,2c3.52,0,5-1.17,5-3,0-4.71-12-1-12-8.15,0-3,2.61-5.16,7.32-5.16a12.69,12.69,0,0,1,6.55,1.69l-1.09,2A9.68,9.68,0,0,0,840.6,658c-3.34,0-4.82,1.27-4.82,3,0,4.89,12,1.21,12,8.15,0,3.13-2.81,5.16-7.63,5.16A12.57,12.57,0,0,1,832.62,672.1Z"/><path class="cls-1" d="M379.06,410.27v43.59h-4.52V419L357,448.31h-2.23l-17.52-29.14v34.69h-4.52V410.27h3.89L356,442.58l19.18-32.31Z"/><path class="cls-1" d="M429,442.21H404.1l-5.35,11.65h-4.91l20.39-43.59h4.65l20.39,43.59h-5Zm-1.72-3.73-10.71-23.42-10.7,23.42Z"/><path class="cls-1" d="M491.31,410.27v43.59h-3.88l-28.67-35.37v35.37h-4.71V410.27h3.88l28.73,35.37V410.27Z"/><path class="cls-1" d="M513.23,410.27h4.71v43.59h-4.71Z"/><path class="cls-1" d="M584.77,457.53a13.8,13.8,0,0,1-10.83,5c-5.22,0-9.55-2.3-15.42-8.28-13.06-.37-22.61-9.71-22.61-22.17,0-12.7,9.94-22.17,23.44-22.17s23.38,9.41,23.38,22.17c0,11.15-7.58,19.68-18.41,21.73,3.38,3.49,6.5,5,9.68,5a10.77,10.77,0,0,0,8.48-4Zm-25.42-7.41c10.71,0,18.67-7.72,18.67-18.06s-8-18.06-18.67-18.06-18.79,7.72-18.79,18.06S548.59,450.12,559.35,450.12Z"/><path class="cls-1" d="M600.32,435.24v-25H605v24.78c0,10.34,5,15.07,13.63,15.07s13.7-4.73,13.7-15.07V410.27H637v25c0,12.51-6.88,19-18.29,19S600.32,447.75,600.32,435.24Z"/><path class="cls-1" d="M665.49,399h6l-10.32,7.72h-4.46Zm-7,11.27h4.72v43.59h-4.72Z"/><path class="cls-1" d="M716.71,449.87v4H685.17V410.27h30.58v4H689.89v15.51H713v3.92H689.89v16.19Z"/><path class="cls-1" d="M730.91,448.56l1.85-3.55c3.19,3.06,8.86,5.3,14.72,5.3,8.34,0,12-3.43,12-7.73,0-11.95-27.45-4.6-27.45-20.73,0-6.41,5.09-12,16.43-12a25.71,25.71,0,0,1,13.83,3.86l-1.6,3.68a23.31,23.31,0,0,0-12.23-3.61c-8.15,0-11.78,3.55-11.78,7.9,0,12,27.45,4.74,27.45,20.62,0,6.41-5.22,11.89-16.62,11.89C740.79,454.23,734.23,451.93,730.91,448.56Z"/><rect class="cls-1" x="123.49" y="623.22" width="833" height="3"/></g></g></svg>