<svg xmlns="http://www.w3.org/2000/svg" viewBox="0 0 100 100"><defs><style>.cls-1{fill:#5e2e07;}</style></defs><g id="PROCESO_CREATIVO" data-name="PROCESO CREATIVO"><g id="ISOLOGO_Y_VARIANTES" data-name="ISOLOGO Y VARIANTES"><path class="cls-1" d="M56.59,37.77c-2.82-2.69-1.62-5.16-1.31-5.93s4.4-9.49,4.94-10.5-.52-3-4.2-3.12-3.16-3.78-3.16-3.78A5.74,5.74,0,0,0,50,14a5.69,5.69,0,0,0-2.85.48s.5,3.63-3.17,3.78-4.74,2.1-4.2,3.12,4.62,9.74,4.94,10.5,1.52,3.24-1.31,5.93-4.55,6.14-4.24,13.13c0,1.15,4.39,2.09,10,2.18v26h-1a2.51,2.51,0,0,0-2.51,2.51c0,1.87-2.35,3.17-3.88,3.17-1.16,0-.57.73-.21,1.1a.67.67,0,0,0,.47.19h2.38a1.06,1.06,0,0,0,.91-.51c.64-1.11,2.24-3.63,3.54-4h.26v1a.76.76,0,0,0,.75.76h.22a.76.76,0,0,0,.75-.76v-1h.26c1.3.33,2.9,2.85,3.54,4a1.06,1.06,0,0,0,.91.51H58a.67.67,0,0,0,.47-.19c.36-.37.95-1.1-.21-1.1-1.53,0-3.88-1.3-3.88-3.17a2.51,2.51,0,0,0-2.51-2.51h-1v-26c5.58-.09,10-1,10-2.18C61.14,43.91,59.42,40.47,56.59,37.77Z"/></g></g></svg>